# xmcd
#
# Track frame offsets: 
#        150
#        12291
#        23247
#        35638
#        47223
#        59683
#        74416
#        90672
#        103566
#        112735
#        123322
#        134469
#        145786
#        157196
#        168699
#        182339
#        192777
#        203115
#        216993
#        228345
#        243484
#        254529
#        267508
#        281415
#        292862
#
# Disc length: 4080 seconds
#
# Revision: 0
# Processed by: cddbd v1.5.2PL0 Copyright (c) Steve Scherf et al.
# Submitted via: ExactAudioCopy v1.0b4
#
DISCID=770fee19
DTITLE=B.B. King - The Complete Singles As and Bs 1949-62  disc 1
DYEAR=2015
DGENRE=Blues
TTITLE0=Miss Martha King
TTITLE1=When Your Baby Packs Up And Goes
TTITLE2=Got The Blues
TTITLE3=Take A Swing With Me
TTITLE4=Mistreated Woman
TTITLE5=B.B. Boogie
TTITLE6=The Other Night Blues
TTITLE7=Walkin' And Cryin'
TTITLE8=My Baby's Gone
TTITLE9=Don't You Want A Man Like Me
TTITLE10=B.B. Blues
TTITLE11=She's Dynamite
TTITLE12=She's A Mean Woman
TTITLE13=Hard Working Woman
TTITLE14=3 O'Clock Blues
TTITLE15=That Ain't The Way To Do It
TTITLE16=Fine Lookin' Woman
TTITLE17=She Don't Move Me No More
TTITLE18=Shake It Up And Go
TTITLE19=My Own Fault, Darling
TTITLE20=Gotta Find My Baby
TTITLE21=Someday Somewhere
TTITLE22=You Know I Love You
TTITLE23=You Didn't Want Me
TTITLE24=Story From My Heart And Soul
EXTD=
EXTT0=
EXTT1=
EXTT2=
EXTT3=
EXTT4=
EXTT5=
EXTT6=
EXTT7=
EXTT8=
EXTT9=
EXTT10=
EXTT11=
EXTT12=
EXTT13=
EXTT14=
EXTT15=
EXTT16=
EXTT17=
EXTT18=
EXTT19=
EXTT20=
EXTT21=
EXTT22=
EXTT23=
EXTT24=
PLAYORDER=
